<svg width="86" height="40" viewBox="0 0 86 40" fill="none" xmlns="http://www.w3.org/2000/svg">
<path d="M21.9038 38.8535H1.00012V27.6367H21.9038V38.8535Z" fill="#EBE6F4" stroke="#8470BE" stroke-width="1.5" stroke-linejoin="round"/>
<path d="M21.9037 38.8535H1V27.6367M21.9037 38.8535V27.6367M21.9037 38.8535L26.6538 34.1034V22.8866M21.9037 27.6367H1M21.9037 27.6367L26.6538 22.8866M1 27.6367L5.7501 22.8866H26.6538" stroke="#8470BE" stroke-width="1.5" stroke-linejoin="round"/>
<path fill-rule="evenodd" clip-rule="evenodd" d="M48.9523 38.8535H53.2686L59.069 33.0531V18H37.4542L31.6538 23.8004V38.8535H35.9698C35.9234 38.5386 35.8993 38.2165 35.8993 37.8887C35.8993 34.2647 38.8371 31.327 42.461 31.327C46.085 31.327 49.0227 34.2647 49.0227 37.8887C49.0227 38.2165 48.9987 38.5386 48.9523 38.8535Z" fill="#FFE5E5"/>
<path d="M53.2686 38.8535V39.6035C53.4675 39.6035 53.6583 39.5245 53.7989 39.3838L53.2686 38.8535ZM48.9523 38.8535L48.2103 38.7442C48.1785 38.9598 48.2422 39.1787 48.3846 39.3437C48.5271 39.5087 48.7343 39.6035 48.9523 39.6035V38.8535ZM59.069 33.0531L59.5994 33.5834C59.74 33.4428 59.819 33.252 59.819 33.0531H59.069ZM59.069 18H59.819C59.819 17.5858 59.4832 17.25 59.069 17.25V18ZM37.4542 18V17.25C37.2553 17.25 37.0645 17.329 36.9239 17.4697L37.4542 18ZM31.6538 23.8004L31.1235 23.2701C30.9828 23.4107 30.9038 23.6015 30.9038 23.8004H31.6538ZM31.6538 38.8535H30.9038C30.9038 39.2677 31.2396 39.6035 31.6538 39.6035V38.8535ZM35.9698 38.8535V39.6035C36.1878 39.6035 36.395 39.5087 36.5374 39.3437C36.6799 39.1787 36.7435 38.9598 36.7118 38.7442L35.9698 38.8535ZM53.2686 38.1035H48.9523V39.6035H53.2686V38.1035ZM58.5387 32.5228L52.7383 38.3232L53.7989 39.3838L59.5994 33.5834L58.5387 32.5228ZM58.319 18V33.0531H59.819V18H58.319ZM37.4542 18.75H59.069V17.25H37.4542V18.75ZM32.1841 24.3307L37.9846 18.5303L36.9239 17.4697L31.1235 23.2701L32.1841 24.3307ZM32.4038 38.8535V23.8004H30.9038V38.8535H32.4038ZM35.9698 38.1035H31.6538V39.6035H35.9698V38.1035ZM36.7118 38.7442C36.6707 38.4654 36.6493 38.1797 36.6493 37.8887H35.1493C35.1493 38.2532 35.1761 38.6119 35.2278 38.9629L36.7118 38.7442ZM36.6493 37.8887C36.6493 34.679 39.2513 32.077 42.461 32.077V30.577C38.4229 30.577 35.1493 33.8505 35.1493 37.8887H36.6493ZM42.461 32.077C45.6707 32.077 48.2727 34.679 48.2727 37.8887H49.7727C49.7727 33.8505 46.4992 30.577 42.461 30.577V32.077ZM48.2727 37.8887C48.2727 38.1797 48.2514 38.4654 48.2103 38.7442L49.6943 38.9629C49.746 38.6119 49.7727 38.2532 49.7727 37.8887H48.2727ZM54.0186 38.8535V23.8004H52.5186V38.8535H54.0186ZM53.2686 23.0504H31.6538V24.5504H53.2686V23.0504ZM53.7989 24.3307L59.5994 18.5303L58.5387 17.4697L52.7383 23.2701L53.7989 24.3307Z" fill="#E95F6A"/>
<path d="M53.2686 38.8535V23.8004H31.6538L37.4542 18H59.069V33.0531L53.2686 38.8535Z" fill="white"/>
<path d="M53.2686 23.8004V38.8535L59.069 33.0531V18M53.2686 23.8004H31.6538L37.4542 18H59.069M53.2686 23.8004L59.069 18" stroke="#E95F6A" stroke-width="1.5" stroke-linejoin="round"/>
<path d="M84.4341 38.8535H64.069C64.069 33.2298 68.6279 28.671 74.2515 28.671C79.8752 28.671 84.4341 33.2298 84.4341 38.8535Z" fill="#E4EBFF"/>
<path d="M84.4341 38.8535C84.4341 33.2298 79.8752 28.671 74.2515 28.671C68.6279 28.671 64.069 33.2298 64.069 38.8535M84.4341 38.8535H64.069M84.4341 38.8535V33.3237C84.4341 27.7001 79.8752 23.1412 74.2515 23.1412C68.6279 23.1412 64.069 27.7001 64.069 33.3237V38.8535" stroke="#018EF5" stroke-width="1.5"/>
<path d="M45.3613 1.65143C42.3362 1.65143 39.8838 3.10281 39.8838 4.89319V17.3013C39.8838 19.0917 42.3362 20.5431 45.3613 20.5431C48.3865 20.5431 50.8389 19.0917 50.8389 17.3013V4.89319C50.8389 3.10281 48.3865 1.65143 45.3613 1.65143Z" fill="#E1F7EC" stroke="#12CA93" stroke-width="1.5" stroke-linejoin="round"/>
<path d="M50.8389 4.89313C50.8389 6.6835 48.3865 8.13489 45.3613 8.13489C42.3362 8.13489 39.8838 6.6835 39.8838 4.89313C39.8838 3.10275 42.3362 1.65137 45.3613 1.65137C48.3865 1.65137 50.8389 3.10275 50.8389 4.89313Z" fill="white" stroke="#12CA93" stroke-width="1.5" stroke-linejoin="round"/>
</svg>
